<mxfile host="app.diagrams.net" modified="2023-05-04T16:27:07.024Z" agent="Mozilla/5.0 (Windows NT 10.0; Win64; x64) AppleWebKit/537.36 (KHTML, like Gecko) Chrome/112.0.0.0 Safari/537.36" etag="Ge7LX6sKftmTZio3z-kJ" version="21.2.2" type="device">
  <diagram name="Page-1" id="auEtW47VkaG1nLEKgPyJ">
    <mxGraphModel dx="2261" dy="1925" grid="1" gridSize="10" guides="1" tooltips="1" connect="1" arrows="1" fold="1" page="1" pageScale="1" pageWidth="827" pageHeight="1169" math="0" shadow="0">
      <root>
        <mxCell id="0" />
        <mxCell id="1" parent="0" />
        <mxCell id="TezTJcOis4TY1QdjKaeL-22" style="edgeStyle=orthogonalEdgeStyle;rounded=0;orthogonalLoop=1;jettySize=auto;html=1;" edge="1" parent="1" source="TezTJcOis4TY1QdjKaeL-1" target="TezTJcOis4TY1QdjKaeL-19">
          <mxGeometry relative="1" as="geometry" />
        </mxCell>
        <mxCell id="TezTJcOis4TY1QdjKaeL-25" style="edgeStyle=orthogonalEdgeStyle;rounded=0;orthogonalLoop=1;jettySize=auto;html=1;" edge="1" parent="1" source="TezTJcOis4TY1QdjKaeL-1" target="TezTJcOis4TY1QdjKaeL-12">
          <mxGeometry relative="1" as="geometry" />
        </mxCell>
        <mxCell id="TezTJcOis4TY1QdjKaeL-27" style="edgeStyle=orthogonalEdgeStyle;rounded=0;orthogonalLoop=1;jettySize=auto;html=1;" edge="1" parent="1" source="TezTJcOis4TY1QdjKaeL-1" target="TezTJcOis4TY1QdjKaeL-8">
          <mxGeometry relative="1" as="geometry" />
        </mxCell>
        <mxCell id="TezTJcOis4TY1QdjKaeL-32" style="edgeStyle=orthogonalEdgeStyle;rounded=0;orthogonalLoop=1;jettySize=auto;html=1;" edge="1" parent="1" source="TezTJcOis4TY1QdjKaeL-1" target="TezTJcOis4TY1QdjKaeL-11">
          <mxGeometry relative="1" as="geometry" />
        </mxCell>
        <mxCell id="TezTJcOis4TY1QdjKaeL-33" style="edgeStyle=orthogonalEdgeStyle;rounded=0;orthogonalLoop=1;jettySize=auto;html=1;entryX=0;entryY=0.5;entryDx=0;entryDy=0;" edge="1" parent="1" source="TezTJcOis4TY1QdjKaeL-1" target="TezTJcOis4TY1QdjKaeL-20">
          <mxGeometry relative="1" as="geometry" />
        </mxCell>
        <mxCell id="TezTJcOis4TY1QdjKaeL-45" style="edgeStyle=orthogonalEdgeStyle;rounded=0;orthogonalLoop=1;jettySize=auto;html=1;entryX=0.5;entryY=0;entryDx=0;entryDy=0;" edge="1" parent="1" source="TezTJcOis4TY1QdjKaeL-1" target="TezTJcOis4TY1QdjKaeL-44">
          <mxGeometry relative="1" as="geometry" />
        </mxCell>
        <mxCell id="TezTJcOis4TY1QdjKaeL-1" value="Vodja radova" style="rounded=0;whiteSpace=wrap;html=1;" vertex="1" parent="1">
          <mxGeometry x="-240" y="10" width="170" height="90" as="geometry" />
        </mxCell>
        <mxCell id="TezTJcOis4TY1QdjKaeL-52" style="edgeStyle=orthogonalEdgeStyle;rounded=0;orthogonalLoop=1;jettySize=auto;html=1;" edge="1" parent="1" source="TezTJcOis4TY1QdjKaeL-2" target="TezTJcOis4TY1QdjKaeL-7">
          <mxGeometry relative="1" as="geometry" />
        </mxCell>
        <mxCell id="TezTJcOis4TY1QdjKaeL-2" value="Radnik" style="rounded=0;whiteSpace=wrap;html=1;" vertex="1" parent="1">
          <mxGeometry x="810" y="120" width="190" height="100" as="geometry" />
        </mxCell>
        <mxCell id="TezTJcOis4TY1QdjKaeL-4" value="Gradiliste" style="whiteSpace=wrap;html=1;" vertex="1" parent="1">
          <mxGeometry x="160" y="480" width="190" height="90" as="geometry" />
        </mxCell>
        <mxCell id="TezTJcOis4TY1QdjKaeL-15" style="edgeStyle=orthogonalEdgeStyle;rounded=0;orthogonalLoop=1;jettySize=auto;html=1;" edge="1" parent="1" source="TezTJcOis4TY1QdjKaeL-6" target="TezTJcOis4TY1QdjKaeL-2">
          <mxGeometry relative="1" as="geometry" />
        </mxCell>
        <mxCell id="TezTJcOis4TY1QdjKaeL-50" style="edgeStyle=orthogonalEdgeStyle;rounded=0;orthogonalLoop=1;jettySize=auto;html=1;" edge="1" parent="1" source="TezTJcOis4TY1QdjKaeL-6" target="TezTJcOis4TY1QdjKaeL-48">
          <mxGeometry relative="1" as="geometry" />
        </mxCell>
        <mxCell id="TezTJcOis4TY1QdjKaeL-6" value="lekarska uverenja" style="ellipse;whiteSpace=wrap;html=1;" vertex="1" parent="1">
          <mxGeometry x="610" y="260" width="120" height="80" as="geometry" />
        </mxCell>
        <mxCell id="TezTJcOis4TY1QdjKaeL-51" style="edgeStyle=orthogonalEdgeStyle;rounded=0;orthogonalLoop=1;jettySize=auto;html=1;entryX=0.678;entryY=-0.1;entryDx=0;entryDy=0;entryPerimeter=0;" edge="1" parent="1" source="TezTJcOis4TY1QdjKaeL-7" target="TezTJcOis4TY1QdjKaeL-48">
          <mxGeometry relative="1" as="geometry" />
        </mxCell>
        <mxCell id="TezTJcOis4TY1QdjKaeL-7" value="oprema za rad" style="ellipse;whiteSpace=wrap;html=1;" vertex="1" parent="1">
          <mxGeometry x="845" y="330" width="120" height="80" as="geometry" />
        </mxCell>
        <mxCell id="TezTJcOis4TY1QdjKaeL-29" style="edgeStyle=orthogonalEdgeStyle;rounded=0;orthogonalLoop=1;jettySize=auto;html=1;entryX=0.5;entryY=0;entryDx=0;entryDy=0;" edge="1" parent="1" source="TezTJcOis4TY1QdjKaeL-8" target="TezTJcOis4TY1QdjKaeL-41">
          <mxGeometry relative="1" as="geometry">
            <mxPoint x="140" y="360" as="targetPoint" />
          </mxGeometry>
        </mxCell>
        <mxCell id="TezTJcOis4TY1QdjKaeL-8" value="odrzavanje opreme&lt;br&gt;" style="ellipse;whiteSpace=wrap;html=1;" vertex="1" parent="1">
          <mxGeometry x="-20" y="180" width="120" height="80" as="geometry" />
        </mxCell>
        <mxCell id="TezTJcOis4TY1QdjKaeL-24" style="edgeStyle=orthogonalEdgeStyle;rounded=0;orthogonalLoop=1;jettySize=auto;html=1;entryX=0;entryY=0.5;entryDx=0;entryDy=0;" edge="1" parent="1" source="TezTJcOis4TY1QdjKaeL-9" target="TezTJcOis4TY1QdjKaeL-2">
          <mxGeometry relative="1" as="geometry" />
        </mxCell>
        <mxCell id="TezTJcOis4TY1QdjKaeL-9" value="prijava radnika" style="ellipse;whiteSpace=wrap;html=1;" vertex="1" parent="1">
          <mxGeometry x="680" y="10" width="120" height="80" as="geometry" />
        </mxCell>
        <mxCell id="TezTJcOis4TY1QdjKaeL-31" style="edgeStyle=orthogonalEdgeStyle;rounded=0;orthogonalLoop=1;jettySize=auto;html=1;" edge="1" parent="1" source="TezTJcOis4TY1QdjKaeL-10" target="TezTJcOis4TY1QdjKaeL-4">
          <mxGeometry relative="1" as="geometry" />
        </mxCell>
        <mxCell id="TezTJcOis4TY1QdjKaeL-10" value="dozvola za rad&lt;br&gt;" style="ellipse;whiteSpace=wrap;html=1;" vertex="1" parent="1">
          <mxGeometry x="-110" y="485" width="120" height="80" as="geometry" />
        </mxCell>
        <mxCell id="TezTJcOis4TY1QdjKaeL-30" style="edgeStyle=orthogonalEdgeStyle;rounded=0;orthogonalLoop=1;jettySize=auto;html=1;entryX=0.5;entryY=0;entryDx=0;entryDy=0;" edge="1" parent="1" source="TezTJcOis4TY1QdjKaeL-11" target="TezTJcOis4TY1QdjKaeL-41">
          <mxGeometry relative="1" as="geometry">
            <mxPoint x="150" y="370" as="targetPoint" />
          </mxGeometry>
        </mxCell>
        <mxCell id="TezTJcOis4TY1QdjKaeL-11" value="vremenski uslovi" style="ellipse;whiteSpace=wrap;html=1;" vertex="1" parent="1">
          <mxGeometry x="100" y="260" width="120" height="80" as="geometry" />
        </mxCell>
        <mxCell id="TezTJcOis4TY1QdjKaeL-28" style="edgeStyle=orthogonalEdgeStyle;rounded=0;orthogonalLoop=1;jettySize=auto;html=1;entryX=0.5;entryY=0;entryDx=0;entryDy=0;" edge="1" parent="1" source="TezTJcOis4TY1QdjKaeL-12" target="TezTJcOis4TY1QdjKaeL-41">
          <mxGeometry relative="1" as="geometry" />
        </mxCell>
        <mxCell id="TezTJcOis4TY1QdjKaeL-12" value="provera uslova&lt;br&gt;" style="ellipse;whiteSpace=wrap;html=1;" vertex="1" parent="1">
          <mxGeometry x="-290" y="250" width="120" height="80" as="geometry" />
        </mxCell>
        <mxCell id="TezTJcOis4TY1QdjKaeL-38" style="edgeStyle=orthogonalEdgeStyle;rounded=0;orthogonalLoop=1;jettySize=auto;html=1;entryX=0;entryY=0.25;entryDx=0;entryDy=0;" edge="1" parent="1" source="TezTJcOis4TY1QdjKaeL-19" target="TezTJcOis4TY1QdjKaeL-37">
          <mxGeometry relative="1" as="geometry" />
        </mxCell>
        <mxCell id="TezTJcOis4TY1QdjKaeL-19" value="obuka radnika" style="ellipse;whiteSpace=wrap;html=1;" vertex="1" parent="1">
          <mxGeometry x="320" y="-50" width="120" height="80" as="geometry" />
        </mxCell>
        <mxCell id="TezTJcOis4TY1QdjKaeL-39" style="edgeStyle=orthogonalEdgeStyle;rounded=0;orthogonalLoop=1;jettySize=auto;html=1;entryX=0;entryY=1;entryDx=0;entryDy=0;" edge="1" parent="1" source="TezTJcOis4TY1QdjKaeL-20" target="TezTJcOis4TY1QdjKaeL-37">
          <mxGeometry relative="1" as="geometry" />
        </mxCell>
        <mxCell id="TezTJcOis4TY1QdjKaeL-20" value="zastitna oprema&amp;nbsp;" style="ellipse;whiteSpace=wrap;html=1;" vertex="1" parent="1">
          <mxGeometry x="294" y="90" width="120" height="80" as="geometry" />
        </mxCell>
        <mxCell id="TezTJcOis4TY1QdjKaeL-47" style="edgeStyle=orthogonalEdgeStyle;rounded=0;orthogonalLoop=1;jettySize=auto;html=1;entryX=1;entryY=0.5;entryDx=0;entryDy=0;" edge="1" parent="1" source="TezTJcOis4TY1QdjKaeL-21" target="TezTJcOis4TY1QdjKaeL-4">
          <mxGeometry relative="1" as="geometry" />
        </mxCell>
        <mxCell id="TezTJcOis4TY1QdjKaeL-21" value="gradnja objekta" style="ellipse;whiteSpace=wrap;html=1;" vertex="1" parent="1">
          <mxGeometry x="420" y="450" width="120" height="80" as="geometry" />
        </mxCell>
        <mxCell id="TezTJcOis4TY1QdjKaeL-40" style="edgeStyle=orthogonalEdgeStyle;rounded=0;orthogonalLoop=1;jettySize=auto;html=1;entryX=0;entryY=0.5;entryDx=0;entryDy=0;" edge="1" parent="1" source="TezTJcOis4TY1QdjKaeL-37" target="TezTJcOis4TY1QdjKaeL-9">
          <mxGeometry relative="1" as="geometry" />
        </mxCell>
        <mxCell id="TezTJcOis4TY1QdjKaeL-37" value="steceni uslovi" style="shape=partialRectangle;whiteSpace=wrap;html=1;left=0;right=0;fillColor=none;" vertex="1" parent="1">
          <mxGeometry x="470" y="65" width="180" height="30" as="geometry" />
        </mxCell>
        <mxCell id="TezTJcOis4TY1QdjKaeL-42" style="edgeStyle=orthogonalEdgeStyle;rounded=0;orthogonalLoop=1;jettySize=auto;html=1;entryX=0.5;entryY=0;entryDx=0;entryDy=0;" edge="1" parent="1" source="TezTJcOis4TY1QdjKaeL-41" target="TezTJcOis4TY1QdjKaeL-10">
          <mxGeometry relative="1" as="geometry" />
        </mxCell>
        <mxCell id="TezTJcOis4TY1QdjKaeL-41" value="steceni uslovi" style="shape=partialRectangle;whiteSpace=wrap;html=1;left=0;right=0;fillColor=none;" vertex="1" parent="1">
          <mxGeometry x="-110" y="385" width="180" height="30" as="geometry" />
        </mxCell>
        <mxCell id="TezTJcOis4TY1QdjKaeL-46" style="edgeStyle=orthogonalEdgeStyle;rounded=0;orthogonalLoop=1;jettySize=auto;html=1;" edge="1" parent="1" source="TezTJcOis4TY1QdjKaeL-44" target="TezTJcOis4TY1QdjKaeL-41">
          <mxGeometry relative="1" as="geometry" />
        </mxCell>
        <mxCell id="TezTJcOis4TY1QdjKaeL-44" value="postavljanje znakova&lt;br&gt;za rad" style="ellipse;whiteSpace=wrap;html=1;" vertex="1" parent="1">
          <mxGeometry x="-140" y="190" width="120" height="80" as="geometry" />
        </mxCell>
        <mxCell id="TezTJcOis4TY1QdjKaeL-49" style="edgeStyle=orthogonalEdgeStyle;rounded=0;orthogonalLoop=1;jettySize=auto;html=1;entryX=1;entryY=0.5;entryDx=0;entryDy=0;" edge="1" parent="1" source="TezTJcOis4TY1QdjKaeL-48" target="TezTJcOis4TY1QdjKaeL-21">
          <mxGeometry relative="1" as="geometry" />
        </mxCell>
        <mxCell id="TezTJcOis4TY1QdjKaeL-48" value="steceni uslovi" style="shape=partialRectangle;whiteSpace=wrap;html=1;left=0;right=0;fillColor=none;" vertex="1" parent="1">
          <mxGeometry x="520" y="420" width="180" height="30" as="geometry" />
        </mxCell>
      </root>
    </mxGraphModel>
  </diagram>
</mxfile>
